<svg width="183" height="187" viewBox="0 0 183 187" fill="none" xmlns="http://www.w3.org/2000/svg">
<path d="M38.9746 94.8619C38.9741 37.363 103.467 29.8628 124.475 50.8619L110.475 68.8619C101.467 58.8632 61.0036 59.3632 62.4748 94.8619C63.8425 127.863 105.967 133.364 118.475 112.363H143.967C117.967 175.364 38.9751 146.863 38.9746 94.8619Z" fill="#DC4D70"/>
<path d="M24.9656 98.9249C17.534 44.4256 80.9495 -3.07439 135.95 37.9256L150.429 20.4295C90.9665 -29.6373 -7.46123 18.3628 0.449106 98.9249C11.1027 207.426 149.966 214.363 180.429 125.929C180.429 125.929 184.966 112.863 179.466 99.8625C176.852 93.6845 165.466 80.9295 152.429 80.9295H92.9293C76.9091 80.9295 76.9091 104.363 92.9293 104.363H148.966C155.466 104.363 162.491 107.764 156.95 120.426C128.966 184.363 35.4656 175.926 24.9656 98.9249Z" fill="#DC4D70"/>
</svg>
